<svg id="Outline" xmlns="http://www.w3.org/2000/svg" width="40" height="40" viewBox="0 0 40 40">
  <defs>
    <style>
      .cls-1 {
        fill: none;
      }
    </style>
  </defs>
  <g>
    <g>
      <path d="M20,11a9,9,0,1,0,9,9A9.01047,9.01047,0,0,0,20,11Zm0,16a7,7,0,1,1,7-7A7.00787,7.00787,0,0,1,20,27Z"/>
      <path d="M19,5V8a1,1,0,0,0,2,0V5a1,1,0,0,0-2,0Z"/>
      <path d="M20,31a1,1,0,0,0-1,1v3a1,1,0,0,0,2,0V32A1,1,0,0,0,20,31Z"/>
      <path d="M8.68652,8.68652a.99965.99965,0,0,0,0,1.41407l2.1211,2.12109a.99989.99989,0,0,0,1.41406-1.41406l-2.12109-2.1211A.99965.99965,0,0,0,8.68652,8.68652Z"/>
      <path d="M29.19238,27.77832a.99989.99989,0,0,0-1.41406,1.41406l2.12109,2.1211a.9999.9999,0,1,0,1.41407-1.41407Z"/>
      <path d="M9,20a1,1,0,0,0-1-1H5a1,1,0,0,0,0,2H8A1,1,0,0,0,9,20Z"/>
      <path d="M35,19H32a1,1,0,0,0,0,2h3a1,1,0,0,0,0-2Z"/>
      <path d="M10.80762,27.77832l-2.1211,2.12109a.9999.9999,0,1,0,1.41407,1.41407l2.12109-2.1211a.99989.99989,0,0,0-1.41406-1.41406Z"/>
      <path d="M29.89941,8.68652l-2.12109,2.1211a.99989.99989,0,1,0,1.41406,1.41406l2.1211-2.12109a.9999.9999,0,1,0-1.41407-1.41407Z"/>
    </g>
    <rect class="cls-1" width="40" height="40"/>
  </g>
</svg>
